<svg xmlns="http://www.w3.org/2000/svg" viewBox="0 0 204 750"><defs><style>.a{fill:#fff;}</style></defs><title>header</title><path class="a" d="M100.4,93.5h6.6a5.5,5.5,0,0,0,3-1.3,4.8,4.8,0,0,0,.9-2.9s-.1-8.8,4-10.1,9.2,8.5,14.7,12.3,7.3,2.2,7.3,2.2l14.7-.2s7.7-.5,4-6.5c-.3-.5-2.1-4.5-10.9-12.6s-8-7.1,3.1-21.9c6.7-9,9.4-14.5,8.6-16.8s-5.8-1.6-5.8-1.6H134a3.7,3.7,0,0,0-2.1.4,4.6,4.6,0,0,0-1.5,1.8,95.7,95.7,0,0,1-6.1,12.9C117,61.7,114,62.3,112.8,61.5c-2.8-1.8-2.1-7.3-2.1-11.1,0-12.1,1.8-17.1-3.6-18.4a28.2,28.2,0,0,0-7.7-.8c-5.9-.1-10.9,0-13.7,1.4s-3.3,3-2.4,3.1,3.6.7,4.9,2.4,1.6,7.5,1.6,7.5,1,14.2-2.3,16S82.3,60.3,75.7,49a105.3,105.3,0,0,1-5.9-12.2A4.9,4.9,0,0,0,68.5,35,6.8,6.8,0,0,0,66,34H50.3s-2.4.1-3.2,1.1-.1,2.8-.1,2.8S59.3,66.7,73.2,81.1s27.2,12.4,27.2,12.4"/><path d="M102,162.5a50,50,0,1,0,50.2,50A50.1,50.1,0,0,0,102,162.5Zm.1,85.8a35.7,35.7,0,1,1,35.8-35.7A35.8,35.8,0,0,1,102.1,248.3Z"/><rect x="94.9" y="205.8" width="14.3" height="35.78"/><circle cx="102.1" cy="191.5" r="8"/><rect x="75.5" y="312.5" width="7.8" height="19.34" rx="3.6" ry="3.6"/><rect x="121.6" y="312.5" width="7.8" height="19.34" rx="3.6" ry="3.6"/><path d="M142.5,320.1h-9.4v7.7s.3,6.9-7.6,7.8-7.6-8.3-7.6-8.3v-7.2H87v7.4s.3,7.6-7.6,8.1-7.6-7.4-7.6-7.4v-8H62.4c-9.1,1.8-10,9.6-10,9.6v73.4a11.7,11.7,0,0,0,9.4,9.4h81.3a12,12,0,0,0,9.4-9.4V329.7A11.5,11.5,0,0,0,142.5,320.1Zm2.2,81.1a3.4,3.4,0,0,1-3.7,3.5h-77c-3.5.1-3.7-3.7-3.7-3.7V347.3h84.4Z"/><path d="M92.3,392.9l.4.4,2.4,2.4a2.4,2.4,0,0,0,1.1.6h.1c1.1.7,3.6.3,4.4-.7l23.1-34a2.4,2.4,0,0,0-.6-3.3l-3.9-2.7a2.4,2.4,0,0,0-3.3.6L97.1,384.1l-8.6-8.6a2.4,2.4,0,0,0-3.4,0l-3.4,3.4a2.4,2.4,0,0,0,0,3.4Z"/><path d="M150.9,494.6a2.2,2.2,0,0,0-2.9.8L120.2,552c-17.9.3-35-5.8-35-5.8a84.1,84.1,0,0,0,26.4-.5,2.4,2.4,0,0,0,1.3-1.1l34.9-71.4a2.3,2.3,0,0,0-.9-2.7,2.2,2.2,0,0,0-3.1.8l-34.3,70.2A78.3,78.3,0,0,1,69.8,538s18.7,3,31.8-3.7a3.1,3.1,0,0,0,.9-1.2l36.2-74a2.1,2.1,0,0,0-.7-2.7,2.1,2.1,0,0,0-2.5,0s-14,9.2-48.8,8.7a2.2,2.2,0,0,0-2.1,1.4L52.4,531.2a2.5,2.5,0,0,0,0,2.6s25.2,22.6,69.4,22.6a2,2,0,0,0,1.6-1.2l28.4-58A2.2,2.2,0,0,0,150.9,494.6ZM88.2,469.5s29.8,0,43.9-6.8L98.8,530.8c-15.6,7.8-41.5.3-41.5.3Z"/><path class="a" d="M145.7,614.8H58.3a6.8,6.8,0,0,0-6.3,6.6v62a7,7,0,0,0,6.3,6.7h9.1v20.2L95.6,690h50.3c6-1.5,6.1-6.1,6.1-6.1V621.1A7.3,7.3,0,0,0,145.7,614.8ZM146,684H93L73.4,698.3V684H57.9V620.8h88Z"/><rect class="a" x="78.7" y="635.8" width="44.7" height="5.95"/><rect class="a" x="78.7" y="649.3" width="44.7" height="5.95"/><rect class="a" x="78.7" y="662.8" width="44.7" height="5.95"/></svg>