<svg xmlns="http://www.w3.org/2000/svg" viewBox="0 0 32 64"><defs><style>.a{fill:#fff;}</style></defs><title>search</title><path class="a" d="M27.7,23.1l-5-5a9.9,9.9,0,1,0-3.3,3.2l5,5a2.3,2.3,0,0,0,3.2-3.2ZM14.4,19.6a6.8,6.8,0,1,1,6.8-6.8A6.8,6.8,0,0,1,14.4,19.6Z"/><path class="a" d="M14.5,7.9a5.3,5.3,0,0,0-4.9,3.2,7,7,0,0,1,9.9.5A5.3,5.3,0,0,0,14.5,7.9Z"/><path d="M27.7,55.9l-5-5a9.9,9.9,0,1,0-3.3,3.2l5,5a2.3,2.3,0,1,0,3.2-3.2ZM14.4,52.4a6.8,6.8,0,1,1,6.8-6.8A6.8,6.8,0,0,1,14.4,52.4Z"/><path d="M14.5,40.8A5.3,5.3,0,0,0,9.6,44a7,7,0,0,1,9.9.5A5.3,5.3,0,0,0,14.5,40.8Z"/></svg>