<svg xmlns="http://www.w3.org/2000/svg" viewBox="0 0 48 510.5"><defs><style>.a{fill-rule:evenodd;}</style></defs><title>sidebar</title><path class="a" d="M23.1,10.2,9,22.3A1.7,1.7,0,0,0,11.2,25l1.5-1.2s0,10.3,0,10.3c0,3.6,3.8,4.3,3.8,4.3h3.8a1.9,1.9,0,0,0,1.4-1.6V28.3c.2-.8.8-.8.8-.8h4.2a1,1,0,0,1,.9.9v8.4a1.9,1.9,0,0,0,1.4,1.6h3.3a4.4,4.4,0,0,0,4.3-4.2V23.8L37.8,25c2.8,1,3-1.9,2.3-2.6L25.9,10.2A1.9,1.9,0,0,0,23.1,10.2Z"/><path d="M8,184.5H40s0-6.1-9.3-8.8c-3.4,3.6-8.8,4.6-13.3,0C7.8,178.5,8,184.5,8,184.5Z"/><path d="M24,156.8c8.6,0,8.6,10.4,8.6,10.4s-.2,10.4-8.6,10.4-8.7-10.4-8.7-10.4S15.4,156.8,24,156.8Z"/><circle cx="23.8" cy="260.1" r="5.4"/><path d="M37.7,250.4H32l-3.1-3.2a2,2,0,0,0-1.6-.7H20.3a2.2,2.2,0,0,0-1.6.8l-3,3.2H10.1a2.6,2.6,0,0,0-2.4,2.4v15.9a2.7,2.7,0,0,0,2.4,2.4H37.2a2.6,2.6,0,0,0,2.5-2.5V252.8A2.7,2.7,0,0,0,37.7,250.4Zm-14,16.9a7.2,7.2,0,1,1,7.2-7.2A7.2,7.2,0,0,1,23.8,267.3Zm12.9-12.7a1.1,1.1,0,1,1,1.1-1.1A1.1,1.1,0,0,1,36.7,254.5Z"/><path d="M37.8,59.1H16.6c-1.9,0-2,2-2,2V82c-.6,2.4-2.1,2.8-2.1,2.8a8.4,8.4,0,0,0,.5-2.8V64.9H10.7A2.6,2.6,0,0,0,8,67.6V83.6s.2,5.2,4.9,4.9h25a2,2,0,0,0,2-2V61.4A2.2,2.2,0,0,0,37.8,59.1ZM33.9,81.3H20.5a.7.7,0,0,1,0-1.4H33.9a.7.7,0,0,1,0,1.4Zm0-3.4H20.5a.7.7,0,0,1,0-1.4H33.9a.7.7,0,0,1,0,1.4Zm0-3.3H20.5a.7.7,0,0,1,0-1.4H33.9a.7.7,0,0,1,0,1.4Zm.1-3.4H20.6a.7.7,0,0,1,0-1.4H34a.7.7,0,0,1,0,1.4Zm0-3.5H20.6a.7.7,0,0,1,0-1.4H34a.7.7,0,0,1,0,1.4Z"/><path d="M40,339.6a2.4,2.4,0,0,0-2.3-2.3H10c-1.6,0-2,2.1-2,2.1v26.3a2.5,2.5,0,0,0,2.1,1.9H37.2c3,0,2.7-2.6,2.7-2.6ZM10.9,351.3h2.8v2.8H10.9Zm2.9,13.6H11v-2.8h2.8Zm0-5.4H11v-2.8h2.8Zm0-10.9H11v-2.8h2.8Zm0-5.4H11v-2.8h2.8Zm20.5,8.2h2.8v2.8H34.3Zm2.9,13.6H34.4v-2.8h2.8Zm0-5.4H34.4v-2.8h2.8Zm0-10.9H34.4V346h2.8Zm0-5.4H34.4v-2.8h2.8Z"/><path d="M18.5,311.4V296.9a4.3,4.3,0,0,1,2.9-3.7l13.7-4.2a2.2,2.2,0,0,1,2.9,1.7v20.7s-.2,4.7-6.7,5.2-4.9-4-4.9-4,.1-5,6.8-5.4a5,5,0,0,1,2.4.5v-9.9s0-.8-.9-.8L22.2,301c-1.4.6-1.4,1.5-1.4,1.5v12.8s-.4,4.8-6.6,5.1-4.8-3.8-4.8-3.8,0-5.1,6.9-5.6A2.9,2.9,0,0,1,18.5,311.4Z"/><path d="M31.6,122s.5-7.6-11.8-8.3S8,121.9,8,121.9a8.7,8.7,0,0,0,5.4,7,11.3,11.3,0,0,1-2.3,3.3s-.5,1,1,1a10.1,10.1,0,0,0,6.6-3.1h1.1C31.7,129.5,31.6,122,31.6,122Z"/><path d="M30.9,116.5c2.5,3.3,2.2,5.3,2.2,5.3s.4,6.4-8.6,9.1c1.2,1,5.7.8,5.7.8a7.8,7.8,0,0,0,6,2.8c1,0,1.1-.6,1.1-.6a17.7,17.7,0,0,1-2.2-3.3c5.2-2.4,5-6.5,5-6.5S40.3,118.2,30.9,116.5Z"/><path d="M8,223.5H28.5s0-3.9-6-5.7c-2.2,2.3-5.6,2.9-8.5,0C7.8,219.7,8,223.5,8,223.5Z"/><path d="M18.2,205.8c5.5,0,5.5,6.6,5.5,6.6s-.1,6.6-5.5,6.6-5.6-6.6-5.6-6.6S12.7,205.8,18.2,205.8Z"/><path d="M29.7,205.8c5.5,0,5.5,6.6,5.5,6.6s-.1,6.6-5.5,6.6-5.6-6.6-5.6-6.6S24.2,205.8,29.7,205.8Z"/><path d="M34,217.8c-2.2,2.3-5.6,2.9-8.5,0l-.6.2c4.6,2.3,4.9,5.5,4.9,5.5H40S40,219.6,34,217.8Z"/><path d="M40,402.6c0-1.3-.7-13.6-8.5-14-2.7-.1-5.2,1.9-5.5,2s-3,.6-4.1-.1a9.5,9.5,0,0,0-5.4-1.9c-7.1.5-8.5,11-8.4,14.6,0,0-.5,6.8,3.3,6.5,1.7.2,6.2-5,6.2-5a2,2,0,0,1,1.4-.6H29.3a2.5,2.5,0,0,1,1.4.7s4,4.8,5.8,5C40.5,410.5,40,402.6,40,402.6ZM20.2,398H18v2.1a1.9,1.9,0,0,1-2.3-.1v-2H13.7a2.1,2.1,0,0,1,0-2.2h2.2v-2.1a2.7,2.7,0,0,1,2.2,0v2.1h2A1.8,1.8,0,0,1,20.2,398Zm10.1,2.4a1.7,1.7,0,1,1,1.7-1.7A1.7,1.7,0,0,1,30.2,400.3Zm0-4.7a1.7,1.7,0,1,1,1.7-1.7A1.7,1.7,0,0,1,30.2,395.6Zm4.3,2.5a1.7,1.7,0,1,1,1.7-1.7A1.7,1.7,0,0,1,34.5,398.1Z"/><path d="M33.6,448.2v7.2a.6.6,0,0,1-.6.6H13.1a.6.6,0,0,1-.6-.6V429.4a.6.6,0,0,1,.6-.6h2.3v1a.6.6,0,0,0,.6.6h0a.6.6,0,0,0,.6-.6v-1h3.5v1a.6.6,0,0,0,.6.6h0a.6.6,0,0,0,.6-.6v-1h3.1v1a.6.6,0,0,0,.6.6h0a.6.6,0,0,0,.6-.6v-1h3.4v1a.6.6,0,0,0,.6.6h0a.6.6,0,0,0,.6-.6v-1H33a.6.6,0,0,1,.6.6v4.3l1.9-1.9v-2.4A2.5,2.5,0,0,0,33,427H30.4v-1.5a.6.6,0,0,0-.6-.6h0a.6.6,0,0,0-.6.6V427H25.8v-1.5a.6.6,0,0,0-.6-.6h0a.6.6,0,0,0-.6.6V427H21.5v-1.5a.6.6,0,0,0-.6-.6h0a.6.6,0,0,0-.6.6V427H16.7v-1.5a.6.6,0,0,0-.6-.6h0a.6.6,0,0,0-.6.6V427H13.1a2.5,2.5,0,0,0-2.5,2.5v25.8a2.5,2.5,0,0,0,2.5,2.5H33a2.5,2.5,0,0,0,2.5-2.5v-9Z"/><rect x="16.2" y="434.4" width="13.2" height="1.13" rx="0.5" ry="0.5"/><rect x="16.2" y="438.9" width="13.2" height="1.13" rx="0.5" ry="0.5"/><path d="M40.3,439.5l1.9-1.9a1.4,1.4,0,0,0,0-2L39,432.3a1.4,1.4,0,0,0-1.7,0l-2.1,2Z"/><path d="M34.4,435.2,22.1,447.5v.2l-2.1,6.6c0,.1-.1.7.6.5l6.5-2.1h.2l12.3-12.3ZM23.1,453l-1.3-1.3.8-2.6,3.1,3.1Zm11.1-15.1-9.5,9.5a.4.4,0,1,1-.6-.6l9.5-9.5a.4.4,0,0,1,.6.6Z"/><path d="M25.6,444H16.7a.5.5,0,0,0-.5.5h0a.5.5,0,0,0,.5.5h7.7Z"/><polygon points="12.9 472.7 12.9 482.7 14.9 482.7 14.9 474.7 32.9 474.7 25 478.7 25 496.7 14.9 496.7 14.9 490.7 12.9 490.7 12.9 498.7 25 498.7 25 504.7 36.9 498.7 36.9 472.7 12.9 472.7"/><polygon points="17 492.7 22.9 486.7 16.9 480.7 16.9 484.7 7 484.7 7 488.7 17 488.7 17 492.7"/></svg>